<svg width="174" height="75" viewBox="0 0 174 75" fill="none" xmlns="http://www.w3.org/2000/svg">
<path d="M55.8209 30.1159H60.5179V28.6053H55.8209V26.1936H61.3808V24.667H54.0342V34.5575H55.8209V30.1159Z" fill="#002EFF"/>
<path d="M63.5218 31.4744C63.5218 29.4903 64.6 28.6964 66.2787 28.6964V26.8499C64.6463 26.8499 63.8145 27.735 63.5218 28.498V27.0024H61.8125V34.5574H63.5218V31.4744Z" fill="#002EFF"/>
<path d="M70.7458 28.4828C71.9628 28.4828 72.8559 29.4596 72.8559 30.7873C72.8559 32.1304 71.9472 33.0769 70.7458 33.0769C69.4524 33.0769 68.5281 32.1155 68.5281 30.7873C68.5281 29.4596 69.4524 28.4828 70.7458 28.4828ZM70.3148 34.7101C71.3463 34.7101 72.2555 34.3129 72.8559 33.6111V34.5576H74.5652V27.0026H72.8559V27.9639C72.2555 27.2617 71.3463 26.8496 70.3148 26.8496C68.2203 26.8496 66.7881 28.6049 66.7881 30.7873C66.7881 32.9548 68.2203 34.7101 70.3148 34.7101Z" fill="#002EFF"/>
<path d="M77.6917 30.6042C77.6917 29.3523 78.5079 28.4826 79.6324 28.4826C80.9107 28.4826 81.1878 29.2002 81.1878 30.4367V34.5574H82.8971V30.2224C82.8971 28.208 82.2197 26.8494 80.1559 26.8494C79.1396 26.8494 78.2615 27.2466 77.6917 28.0859V27.0019H75.9824V34.5574H77.6917V30.6042Z" fill="#002EFF"/>
<path d="M85.9164 32.8172L86.9945 31.5508L89.505 34.5576H91.5839L88.026 30.3752L91.0297 27.0026H88.9196L85.9164 30.5586V24.5142H84.207V34.5576H85.9164V32.8172Z" fill="#002EFF"/>
<path d="M92.6321 34.5572H94.3414V28.3753H96.4515V27.0022H94.3414V26.6663C94.3414 25.7353 94.7573 25.4911 95.2501 25.4911C95.7278 25.4911 96.0663 25.6895 96.2358 25.7657L96.7442 24.5138C96.2669 24.2551 95.5272 24.0259 94.8191 24.0259C93.6177 24.0259 92.6321 24.6822 92.6321 26.4829V27.0022H91.4307V28.3753H92.6321V34.5572Z" fill="#002EFF"/>
<path d="M99.9633 34.7097C100.888 34.7097 101.95 34.2213 102.412 33.3974V34.5572H104.029V27.0022H102.32V31.0162C102.32 32.1002 101.688 33.0765 100.502 33.0765C99.4398 33.0765 98.9007 32.5577 98.9007 31.3521V27.0022H97.1914V31.5963C97.1914 33.5804 97.9457 34.7097 99.9633 34.7097Z" fill="#002EFF"/>
<path d="M107.156 31.4744C107.156 29.4903 108.234 28.6964 109.913 28.6964V26.8499C108.28 26.8499 107.448 27.735 107.156 28.498V27.0024H105.446V34.5574H107.156V31.4744Z" fill="#002EFF"/>
<path d="M111.807 32.1306C111.807 33.871 112.561 34.7098 114.117 34.7098C114.979 34.7098 115.596 34.3743 115.95 34.1451L115.442 32.8787C115.442 32.8787 114.934 33.245 114.333 33.245C113.902 33.245 113.516 32.9853 113.516 32.1765V28.3912H115.811V27.0022H113.516V25.1707L111.807 25.5215V27.0022H110.683V28.3912H111.807V32.1306Z" fill="#002EFF"/>
<path d="M123.666 33.1074C122.173 33.1074 121.171 32.6035 120.355 31.9476L119.662 33.2903C120.324 33.9013 121.48 34.7102 123.651 34.7102C125.622 34.7102 127.686 33.7787 127.686 31.7034C127.686 29.7802 125.853 29.0779 123.959 28.6354C122.757 28.3453 121.864 28.0857 121.864 27.2922C121.864 26.3917 123.004 26.117 123.666 26.117C124.698 26.117 125.622 26.3762 126.515 26.9409L127.208 25.5828C126.207 24.911 125.098 24.5142 123.666 24.5142C121.818 24.5142 120.047 25.4607 120.047 27.3077C120.047 29.2763 121.941 29.8564 123.774 30.284C124.791 30.5282 125.822 30.8024 125.822 31.7034C125.822 32.6035 124.744 33.1074 123.666 33.1074Z" fill="#002EFF"/>
<path d="M132.384 34.7099C133.493 34.7099 134.525 34.3286 135.264 33.7027L134.325 32.4203C133.878 32.8325 133.17 33.0767 132.462 33.0767C130.998 33.0767 130.074 32.0849 130.074 30.7876C130.074 29.4445 131.075 28.4826 132.415 28.4826C133.093 28.4826 133.663 28.6809 134.048 29.0323L135.11 27.8262C134.386 27.2157 133.432 26.8499 132.384 26.8499C130.136 26.8499 128.334 28.5892 128.334 30.7876C128.334 32.9855 130.136 34.7099 132.384 34.7099Z" fill="#002EFF"/>
<path d="M140.301 26.8496C139.285 26.8496 138.407 27.2463 137.852 28.0861V24.5142H136.143V34.5576H137.852V30.589C137.852 29.4138 138.545 28.4828 139.731 28.4828C140.994 28.4828 141.333 29.2005 141.333 30.4365V34.5576H143.042V30.2227C143.042 28.1469 142.303 26.8496 140.301 26.8496Z" fill="#002EFF"/>
<path d="M147.956 33.0769C146.647 33.0769 145.645 32.1001 145.645 30.7873C145.645 29.4596 146.647 28.4828 147.956 28.4828C149.265 28.4828 150.266 29.4596 150.266 30.7873C150.266 32.1001 149.265 33.0769 147.956 33.0769ZM147.956 26.8496C145.707 26.8496 143.905 28.5894 143.905 30.7873C143.905 32.9702 145.707 34.7101 147.956 34.7101C150.204 34.7101 152.006 32.9702 152.006 30.7873C152.006 28.5894 150.204 26.8496 147.956 26.8496Z" fill="#002EFF"/>
<path d="M156.95 33.0769C155.641 33.0769 154.639 32.1001 154.639 30.7873C154.639 29.4596 155.641 28.4828 156.95 28.4828C158.259 28.4828 159.26 29.4596 159.26 30.7873C159.26 32.1001 158.259 33.0769 156.95 33.0769ZM156.95 26.8496C154.701 26.8496 152.899 28.5894 152.899 30.7873C152.899 32.9702 154.701 34.7101 156.95 34.7101C159.198 34.7101 161 32.9702 161 30.7873C161 28.5894 159.198 26.8496 156.95 26.8496Z" fill="#002EFF"/>
<path d="M161.895 34.5573H163.604V24.5139H161.895V34.5573Z" fill="#002EFF"/>
<path d="M57.5606 41.9261C59.2982 41.9261 60.6082 43.2442 60.6082 44.9922C60.6082 46.7398 59.2982 48.0579 57.5606 48.0579C55.8231 48.0579 54.5131 46.7398 54.5131 44.9922C54.5131 43.2442 55.8231 41.9261 57.5606 41.9261ZM57.5606 48.9623C59.8071 48.9623 61.5666 47.2186 61.5666 44.9922C61.5666 42.7659 59.8071 41.0217 57.5606 41.0217C55.3142 41.0217 53.5547 42.7659 53.5547 44.9922C53.5547 47.2186 55.3142 48.9623 57.5606 48.9623Z" fill="#002EFF"/>
<path d="M62.7653 48.8097H63.6935V42.0177H66.3885V41.1746H63.6935V40.7793C63.6935 39.3874 64.3013 39.2093 64.8311 39.2093C65.4827 39.2093 65.9429 39.5143 66.1065 39.6234L66.2643 39.7272L66.668 38.9767L66.5521 38.8893C66.2731 38.678 65.5898 38.3203 64.7999 38.3203C63.45 38.3203 62.7653 39.1321 62.7653 40.7335V41.1746H61.5488V42.0177H62.7653V48.8097Z" fill="#002EFF"/>
<path d="M77.3541 39.4688V38.5798H70.0352V48.8101H70.9935V43.6966H76.2296V42.8072H70.9935V39.4688H77.3541Z" fill="#002EFF"/>
<path d="M79.372 39.2837C79.372 38.9353 79.0676 38.6409 78.7082 38.6409C78.3508 38.6409 78.0596 38.9295 78.0596 39.2837C78.0596 39.6467 78.3508 39.942 78.7082 39.942C79.074 39.942 79.372 39.6467 79.372 39.2837Z" fill="#002EFF"/>
<path d="M78.2441 48.8094H79.1719V41.1743H78.2441V48.8094Z" fill="#002EFF"/>
<path d="M86.0989 44.0458V48.8098H87.0271V43.9691C87.0271 42.0685 86.0146 41.0217 84.1758 41.0217C83.138 41.0217 82.1864 41.4744 81.6054 42.2114V41.1747H80.6777V48.8098H81.6054V44.3513C81.6054 43.2041 82.6169 41.9261 84.0681 41.9261C85.4341 41.9261 86.0989 42.6197 86.0989 44.0458Z" fill="#002EFF"/>
<path d="M94.7083 44.9923C94.7083 46.7114 93.4645 48.058 91.8765 48.058C90.1998 48.058 88.9833 46.7689 88.9833 44.9923C88.9833 43.2447 90.2202 41.9262 91.8614 41.9262C93.4577 41.9262 94.7083 43.2732 94.7083 44.9923ZM95.636 48.8099V41.1743H94.7083V42.4248C94.0504 41.5575 92.9785 41.0222 91.8302 41.0222C89.6607 41.0222 88.0244 42.7288 88.0244 44.9923C88.0244 47.2558 89.6607 48.9624 91.8302 48.9624C92.9795 48.9624 94.0665 48.4016 94.7083 47.5184V48.8099H95.636Z" fill="#002EFF"/>
<path d="M97.9004 44.3508C97.9004 43.2041 98.9118 41.9261 100.363 41.9261C101.729 41.9261 102.394 42.6192 102.394 44.0458V48.8098H103.321V43.9691C103.321 42.0685 102.309 41.0217 100.471 41.0217C99.4324 41.0217 98.4813 41.4744 97.9004 42.2114V41.1742H96.9727V48.8098H97.9004V44.3508Z" fill="#002EFF"/>
<path d="M111.394 47.6028L110.773 46.9387L110.647 47.0757C110.069 47.7094 109.25 48.0579 108.341 48.0579C106.595 48.0579 105.278 46.7398 105.278 44.9922C105.278 43.2446 106.589 41.9261 108.326 41.9261C109.143 41.9261 109.9 42.2128 110.456 42.7345L110.584 42.8547L111.2 42.1713L111.074 42.0583C110.335 41.3899 109.358 41.0217 108.326 41.0217C106.079 41.0217 104.319 42.7659 104.319 44.9922C104.319 47.2186 106.079 48.9623 108.326 48.9623C109.475 48.9623 110.525 48.5202 111.284 47.7181L111.394 47.6028Z" fill="#002EFF"/>
<path d="M112.746 44.5779C112.907 43.0128 114.054 41.8955 115.534 41.8955C116.976 41.8955 118.128 43.0364 118.276 44.5779H112.746ZM111.774 44.992C111.774 47.2556 113.45 48.9621 115.673 48.9621C116.729 48.9621 117.776 48.5625 118.545 47.8646L118.657 47.7628L118.144 47.0519L118.002 47.1904C117.411 47.7613 116.562 48.0886 115.673 48.0886C114.129 48.0886 112.924 46.9645 112.748 45.3907H119.045L119.211 45.3868L119.217 45.2223C119.217 45.2136 119.218 45.1986 119.22 45.1803C119.225 45.1277 119.232 45.0524 119.232 44.9766C119.232 42.7589 117.614 41.0215 115.549 41.0215C113.432 41.0215 111.774 42.7657 111.774 44.992Z" fill="#002EFF"/>
<path d="M125.42 43.8058L128.476 47.2219C127.825 47.774 127.132 48.0428 126.362 48.0428C125.059 48.0428 123.745 47.3966 123.745 45.9535C123.745 44.6803 124.841 44.05 125.42 43.8058ZM130.759 48.4081L129.726 47.2445C130.125 46.7136 130.521 45.83 130.521 44.8092V44.6393H129.578V44.8092C129.578 45.6036 129.303 46.2146 129.078 46.5413L126.213 43.3087C125.402 42.3884 125.008 41.606 125.008 40.9168C125.008 40.1533 125.571 39.3314 126.808 39.3314C127.427 39.3314 128.204 39.7136 128.543 40.5669L128.62 40.7614L129.409 40.2484L129.353 40.1176C128.693 38.592 127.353 38.427 126.808 38.427C124.997 38.427 124.049 39.6799 124.049 40.9168C124.049 41.773 124.399 42.4183 124.843 43.0867C123.551 43.6837 122.786 44.7494 122.786 45.9694C122.786 48.0365 124.559 48.9622 126.315 48.9622C127.35 48.9622 128.311 48.592 129.106 47.8898L130.107 49.0042L130.759 48.4081Z" fill="#002EFF"/>
<path d="M60.1007 57.6944C59.8669 58.0207 59.5236 58.5062 59.3327 58.7774C59.1413 58.5024 58.7951 58.0091 58.5623 57.694L54.9381 52.6626H54.0781V62.8923H55.037V54.3769C55.095 54.4623 55.1573 54.5525 55.2191 54.6404L59.3312 60.3281L63.4448 54.6549C63.5081 54.5661 63.57 54.4773 63.6265 54.3923V62.8923H64.5853V52.6626H63.7565L60.1007 57.6944Z" fill="#002EFF"/>
<path d="M72.5755 59.0748C72.5755 60.7939 71.3317 62.1404 69.7437 62.1404C68.0675 62.1404 66.8505 60.8513 66.8505 59.0748C66.8505 57.3272 68.0874 56.0086 69.7286 56.0086C71.3249 56.0086 72.5755 57.3557 72.5755 59.0748ZM72.5755 56.5072C71.9176 55.6399 70.8452 55.1047 69.6974 55.1047C67.5279 55.1047 65.8916 56.8113 65.8916 59.0748C65.8916 61.3383 67.5279 63.0449 69.6974 63.0449C70.8472 63.0449 71.9341 62.484 72.5755 61.6013V62.8923H73.5037V55.2567H72.5755V56.5072Z" fill="#002EFF"/>
<path d="M78.5234 55.1045C77.4856 55.1045 76.5341 55.5568 75.9531 56.2947V55.257H75.0254V62.8922H75.9531V58.4337C75.9531 57.287 76.9646 56.009 78.4158 56.009C79.7823 56.009 80.4465 56.7025 80.4465 58.1287V62.8922H81.3747V58.0519C81.3747 56.1514 80.3623 55.1045 78.5234 55.1045Z" fill="#002EFF"/>
<path d="M89.056 59.0748C89.056 60.7939 87.8122 62.1404 86.2241 62.1404C84.5474 62.1404 83.3309 60.8513 83.3309 59.0748C83.3309 57.3272 84.5679 56.0086 86.209 56.0086C87.8049 56.0086 89.056 57.3557 89.056 59.0748ZM89.056 56.5072C88.398 55.6399 87.3262 55.1047 86.1779 55.1047C84.0083 55.1047 82.3721 56.8113 82.3721 59.0748C82.3721 61.3383 84.0083 63.0449 86.1779 63.0449C87.3272 63.0449 88.4141 62.484 89.056 61.6008V62.8923H89.9837V55.2567H89.056V56.5072Z" fill="#002EFF"/>
<path d="M97.7889 58.8305C97.7889 60.4034 96.5325 61.6829 94.9883 61.6829C93.3116 61.6829 92.0946 60.4831 92.0946 58.8305C92.0946 57.222 93.332 56.0091 94.9727 56.0091C96.5515 56.0091 97.7889 57.2485 97.7889 58.8305ZM97.8045 56.4126C97.1627 55.5941 96.1147 55.1047 94.942 55.1047C92.772 55.1047 91.1357 56.7065 91.1357 58.8305C91.1357 60.972 92.772 62.5873 94.942 62.5873C96.1035 62.5873 97.1583 62.0868 97.7855 61.2746C97.6774 64.2065 95.1992 64.2929 94.9109 64.2929C94.0294 64.2929 93.1894 63.9189 92.606 63.2664L92.4681 63.1124L91.9466 63.7842L92.0425 63.8894C92.774 64.693 93.7986 65.136 94.9264 65.136C96.6752 65.136 98.7171 64.0762 98.7171 61.0897V55.2572H97.8045V56.4126Z" fill="#002EFF"/>
<path d="M103.628 55.9783C105.071 55.9783 106.222 57.1197 106.37 58.6607H100.841C101.001 57.0955 102.149 55.9783 103.628 55.9783ZM103.643 55.1047C101.526 55.1047 99.8682 56.8484 99.8682 59.0748C99.8682 61.3383 101.544 63.0449 103.766 63.0449C104.822 63.0449 105.869 62.6452 106.639 61.9474L106.751 61.8455L106.238 61.1351L106.096 61.2731C105.506 61.8436 104.656 62.1713 103.766 62.1713C102.223 62.1713 101.019 61.0473 100.842 59.4734H107.139L107.305 59.4696L107.311 59.3055C107.311 59.2958 107.312 59.2813 107.314 59.2635C107.32 59.2109 107.326 59.1351 107.326 59.0598C107.326 56.8417 105.709 55.1047 103.643 55.1047Z" fill="#002EFF"/>
<path d="M116.905 55.1045C116.05 55.1045 114.9 55.4931 114.259 56.5572C113.866 55.6045 113.021 55.1045 111.791 55.1045C110.85 55.1045 109.957 55.5568 109.407 56.2744V55.257H108.479V62.8922H109.407V58.4028C109.407 57.4033 110.279 56.009 111.699 56.009C112.983 56.009 113.607 56.7025 113.607 58.1287V62.8922H114.535V58.3878C114.535 57.2392 115.45 56.009 116.812 56.009C118.106 56.009 118.735 56.7025 118.735 58.1287V62.8922H119.663V58.0519C119.663 56.1514 118.684 55.1045 116.905 55.1045Z" fill="#002EFF"/>
<path d="M124.421 55.9783C125.864 55.9783 127.016 57.1197 127.164 58.6607H121.634C121.794 57.0955 122.942 55.9783 124.421 55.9783ZM124.437 55.1047C122.319 55.1047 120.661 56.8484 120.661 59.0748C120.661 61.3383 122.337 63.0449 124.559 63.0449C125.616 63.0449 126.663 62.6452 127.432 61.9474L127.544 61.8455L127.032 61.1351L126.889 61.2731C126.298 61.8436 125.449 62.1713 124.559 62.1713C123.016 62.1713 121.812 61.0473 121.636 59.4734H127.932L128.098 59.4696L128.104 59.305C128.104 59.2958 128.106 59.2813 128.107 59.263C128.112 59.2104 128.119 59.1351 128.119 59.0598C128.119 56.8417 126.502 55.1047 124.437 55.1047Z" fill="#002EFF"/>
<path d="M132.769 55.1045C131.731 55.1045 130.779 55.5568 130.199 56.2942V55.257H129.271V62.8922H130.199V58.4337C130.199 57.287 131.21 56.009 132.661 56.009C134.027 56.009 134.692 56.7025 134.692 58.1287V62.8922H135.62V58.0519C135.62 56.1514 134.607 55.1045 132.769 55.1045Z" fill="#002EFF"/>
<path d="M140.625 61.7343C140.62 61.7386 140.074 62.1561 139.345 62.1561C138.672 62.1561 138.223 61.9148 138.223 60.7381V56.1001H141.057V55.2569H138.223V53.4167L137.295 53.5378V55.2569H136.171V56.1001H137.295V60.7232C137.295 62.3071 137.947 63.0451 139.345 63.0451C140.217 63.0451 140.881 62.6107 141.064 62.478L141.179 62.394L140.792 61.6044L140.625 61.7343Z" fill="#002EFF"/>
<path d="M50.3907 6.97461C45.0275 7.13967 38.8365 8.95965 34.644 12.1416C30.4881 15.2955 27.3865 19.7159 25.8369 24.6643H14.5457L13.5975 25.3361L11.8706 31.769L12.4239 32.5113H23.7029L22.3895 37.3916H11.0939L10.1462 38.0634L8.41939 44.4963L8.9726 45.2386H20.0759C17.6375 50.933 12.6678 54.8013 6.3122 55.116L5.37232 55.7588L3.63086 62.198L4.20112 62.9229C14.7336 62.9229 25.3601 55.3438 28.4267 45.2386H40.035L40.9588 44.4963L42.7066 38.0634L42.1694 37.3916H30.5509L31.8648 32.5113H43.4862L44.41 31.769L46.1578 25.3361L45.6202 24.6643H34.2272C36.7726 18.9427 41.8061 15.0972 48.2684 14.8245L49.1927 14.1203L50.9176 7.71786C50.6712 7.40801 50.6371 7.28446 50.3907 6.97461Z" fill="#002EFF"/>
</svg>
